<?xml version="1.0" encoding="utf-8"?>
<?xml-stylesheet type="text/xsl" href="rss1.xsl"?>
<rss version="2.0" xmlns:atom="http://www.w3.org/2005/Atom" xmlns:content="http://purl.org/rss/1.0/modules/content/" xmlns:dc="http://purl.org/dc/elements/1.1/" xmlns:media="http://search.yahoo.com/mrss/">
<channel>
 <title>Getty</title>
 <link>http://www.gettyimg.com/</link>
 <atom:link href="http://www.gettyimg.com/" rel="self" type="application/rss+xml" />

 
                <item>
                <title><![CDATA[【Apple Music】WEB-RiP - Camila Cabello - Channel No.5 'Apple.Music.Web.4K-fstambuk']]></title>
                <link><![CDATA[https://sharemania.us/threads/camila-cabello-channel-no-5-apple-music-web-4k-fstambuk.247971/]]></link>
                <description><![CDATA[<article>
<blockquote class="messageText SelectQuoteContainer ugc baseHtml">
<div style="text-align: center"><img src="https://i.ibb.co/VgB7skg/Camila-Cabello-Channel-No-5-Apple-Music-Web-4-K-fstambuk-VTM.gif" class="bbCodeImage LbImage" alt="[​IMG]" data-url="https://i.ibb.co/VgB7skg/Camila-Cabello-Channel-No-5-Apple-Music-Web-4-K-fstambuk-VTM.gif" style=""><br>
​</div>
<div class="ToggleTriggerAnchor bbCodeSpoilerContainer">
<button type="button" class="button bbCodeSpoilerButton ToggleTrigger Tooltip JsOnly" data-target="> .SpoilerTarget"><span>Spoiler: <span class="SpoilerTitle">Apple Music</span></span></button>
<div class="SpoilerTarget bbCodeSpoilerText">
<div class="bbCodeBlock bbCodeCode">
<div class="type">Code:</div>
<pre>General
Complete name                            : Camila Cabello - Channel No.5 'Apple.Music.Web.4K-fstambuk'.m4v
Format                                   : MPEG-4
Format profile                           : Base Media
Codec ID                                 : isom (isom/iso2/mp41)
File size                                : 398 MiB
Duration                                 : 2 min 38 s
Overall bit rate mode                    : Variable
Overall bit rate                         : 21.0 Mb/s
Frame rate                               : 24.000 FPS
Movie name                               : Chanel No.5
Performer                                : Camila Cabello
Genre                                    : Pop
ContentType                              : Music Video
Recorded date                            : 2024-06-24 07:00:00 UTC
Copyright                                : ℗ 2024 Camila Cabello
Cover                                    : Yes
Rating                                   : Explicit
GenreID                                  : 1614
AppleStoreCountry                        : United States
AlbumTitleID                             : 935727853
AppleStoreCatalogID                      : 1753652154

Video
ID                                       : 1
Format                                   : HEVC
Format/Info                              : High Efficiency Video Coding
Format profile                           : Main 10@L5@High
Codec ID                                 : hvc1
Codec ID/Info                            : High Efficiency Video Coding
Duration                                 : 2 min 38 s
Bit rate                                 : 20.7 Mb/s
Width                                    : 2 160 pixels
Height                                   : 2 160 pixels
Display aspect ratio                     : 1.000
Frame rate mode                          : Constant
Frame rate                               : 24.000 FPS
Color space                              : YUV
Chroma subsampling                       : 4:2:0
Bit depth                                : 10 bits
Scan type                                : Progressive
Bits/(Pixel*Frame)                       : 0.185
Stream size                              : 392 MiB (99%)
Title                                    : Core Media Video
Language                                 : English
Color range                              : Limited
Color primaries                          : BT.709
Transfer characteristics                 : BT.709
Matrix coefficients                      : BT.709
Codec configuration box                  : hvcC

Audio
ID                                       : 2
Format                                   : AAC LC
Format/Info                              : Advanced Audio Codec Low Complexity
Codec ID                                 : 2 / 40 / mp4a-40-2
Duration                                 : 2 min 38 s
Bit rate mode                            : Constant
Bit rate                                 : 257 kb/s
Channel(s)                               : 2 channels
Channel layout                           : L R
Sampling rate                            : 48.0 kHz
Frame rate                               : 46.875 FPS (1024 SPF)
Compression mode                         : Lossy
Stream size                              : 4.87 MiB (1%)
Title                                    : Core Media Audio
Default                                  : Yes
Alternate group                          : 1

Text
ID                                       : 3
Format                                   : Timed Text
Muxing mode                              : sbtl
Codec ID                                 : tx3g
Duration                                 : 2 min 38 s
Source duration                          : 2 min 38 s
Bit rate mode                            : Variable
Bit rate                                 : 143 b/s
Frame rate                               : 0.493 FPS
Stream size                              : 2.76 KiB (0%)
Source stream size                       : 2.76 KiB (0%)
Title                                    : Core Media Closed Caption
Language                                 : English
Default                                  : Yes
Forced                                   : No
Alternate group                          : 3
Count of events                          : 62

</pre>
</div><div style="text-align: center">​</div></div>
</div><div style="text-align: center"><br>
<div class="bbCodeBlock bbCodeVfcHH HiddenContent">
<div class="attribution type">Hidden Content:</div>
<blockquote>You must reply before you can see the hidden data contained here.</blockquote>
</div></div>
<div class="messageTextEndMarker">&nbsp;</div>
</blockquote>
</article>]]></description>
                <author><![CDATA[fstambuk]]></author>
                </item>

                </channel></rss>